<mxfile host="app.diagrams.net" modified="2023-11-30T18:45:24.925Z" agent="Mozilla/5.0 (Windows NT 10.0; Win64; x64) AppleWebKit/537.36 (KHTML, like Gecko) Chrome/119.0.0.0 Safari/537.36" version="22.1.5" etag="gI5ghCPDFsta6j7Wb9nt" type="github">
  <diagram name="Page-1" id="zg9axegllwH3DeoD-Pq-">
    <mxGraphModel>
      <root>
        <mxCell id="0" />
        <mxCell id="1" parent="0" />
      </root>
    </mxGraphModel>
  </diagram>
</mxfile>
